<svg width="16" height="16" viewBox="0 0 16 16" fill="none" xmlns="http://www.w3.org/2000/svg">
<g id="folder-open" clip-path="url(#clip0_872_6912)">
<g id="elements">
<path id="Vector" d="M12.6663 8.00402H8.02102C7.46984 8.00402 6.82665 7.93894 6.37928 8.32723C6.10214 8.56777 5.96012 8.95082 5.6761 9.71692L3.96444 13.7663C3.95515 13.7919 3.95047 13.8048 3.94601 13.8164C3.75329 14.3183 3.28148 14.6533 2.75028 14.6662M12.6663 8.00402V7.33325C12.6663 6.39044 12.6663 5.91904 12.377 5.62615C12.0877 5.33325 11.6221 5.33325 10.6909 5.33325H6.63202M12.6663 8.00402C13.7223 8.00402 14.1111 8.00402 14.4004 8.29698C14.4893 8.38695 14.5603 8.49326 14.6098 8.61021C14.771 8.991 14.5748 9.48725 14.1824 10.4797L13.8311 11.3683C13.2168 12.9222 12.9097 13.6992 12.2783 14.1555C12.2347 14.187 12.1902 14.2172 12.1447 14.246C11.4869 14.6634 10.6515 14.6608 8.98059 14.6556L2.75028 14.6662M2.75028 14.6662C2.74791 14.6663 2.74554 14.6663 2.74317 14.6664C2.73087 14.6666 2.71737 14.6666 2.69037 14.6666C2.65286 14.6666 2.63411 14.6666 2.61825 14.6662C1.91577 14.6491 1.35032 14.0766 1.33339 13.3654C1.33301 13.3493 1.33301 13.3303 1.33301 13.2924V5.99992C1.33301 4.74284 1.33301 4.1143 1.71874 3.72378C2.10447 3.33325 2.72529 3.33325 3.96694 3.33325H4.10266C4.75456 3.33325 5.08051 3.33325 5.36584 3.46766C5.97455 3.75441 6.34607 4.61857 6.63202 5.33325M6.63202 5.33325H5.28391" stroke="#FE9602" stroke-linecap="round"/>
<path id="Ellipse 1334" d="M14.665 1.99992L13.9983 3.33325C13.4839 2.15598 12.3092 1.33325 10.9423 1.33325C9.85176 1.33325 8.88353 1.85695 8.27539 2.66659" stroke="#FE9602" stroke-linecap="round" stroke-linejoin="round"/>
</g>
</g>
<defs>
<clipPath id="clip0_872_6912">
<rect width="16" height="16" fill="white"/>
</clipPath>
</defs>
</svg>
