<svg width="16" height="16" viewBox="0 0 16 16" fill="none" xmlns="http://www.w3.org/2000/svg">
<g id="folder-locked">
<g id="elements">
<path id="Vector" d="M10.7202 14.2383L10.5174 14.6954H10.5174L10.7202 14.2383ZM10.0888 13.5619L9.62245 13.7421H9.62245L10.0888 13.5619ZM14.5779 13.5619L15.0442 13.7421V13.7421L14.5779 13.5619ZM13.9465 14.2383L14.1493 14.6954H14.1493L13.9465 14.2383ZM13.9465 10.6786L14.1493 10.2216L13.9465 10.6786ZM14.5779 11.3551L15.0442 11.1748V11.1748L14.5779 11.3551ZM10.7202 10.6786L10.5174 10.2216L10.7202 10.6786ZM10.0888 11.3551L9.62245 11.1748L10.0888 11.3551ZM10.6667 10.5835C10.6667 10.8596 10.8905 11.0835 11.1667 11.0835C11.4428 11.0835 11.6667 10.8596 11.6667 10.5835H10.6667ZM13 10.5835C13 10.8596 13.2239 11.0835 13.5 11.0835C13.7761 11.0835 14 10.8596 14 10.5835H13ZM11.75 11.0835H12.9167V10.0835H11.75V11.0835ZM12.9167 13.8335H11.75V14.8335H12.9167V13.8335ZM11.75 13.8335C11.4709 13.8335 11.2884 13.8332 11.1481 13.8229C11.0131 13.8131 10.9559 13.7959 10.923 13.7813L10.5174 14.6954C10.6989 14.7759 10.8848 14.8064 11.0752 14.8203C11.2603 14.8338 11.4855 14.8335 11.75 14.8335V13.8335ZM9.5 12.4585C9.5 12.7433 9.49976 12.9803 9.51211 13.1742C9.52471 13.372 9.55185 13.5595 9.62245 13.7421L10.5552 13.3816C10.537 13.3345 10.5197 13.2615 10.5101 13.1107C10.5002 12.9559 10.5 12.7561 10.5 12.4585H9.5ZM10.923 13.7813C10.7647 13.7111 10.6285 13.5712 10.5552 13.3816L9.62245 13.7421C9.78594 14.1651 10.1039 14.5119 10.5174 14.6954L10.923 13.7813ZM14.1667 12.4585C14.1667 12.7561 14.1664 12.9559 14.1566 13.1107C14.147 13.2615 14.1297 13.3345 14.1115 13.3816L15.0442 13.7421C15.1148 13.5595 15.142 13.372 15.1546 13.1742C15.1669 12.9803 15.1667 12.7433 15.1667 12.4585H14.1667ZM12.9167 14.8335C13.1811 14.8335 13.4063 14.8338 13.5915 14.8203C13.7818 14.8064 13.9677 14.7759 14.1493 14.6954L13.7436 13.7813C13.7108 13.7959 13.6536 13.8131 13.5186 13.8229C13.3783 13.8332 13.1958 13.8335 12.9167 13.8335V14.8335ZM14.1115 13.3816C14.0382 13.5712 13.9019 13.7111 13.7436 13.7813L14.1493 14.6954C14.5627 14.5119 14.8807 14.1651 15.0442 13.7421L14.1115 13.3816ZM12.9167 11.0835C13.1958 11.0835 13.3783 11.0838 13.5186 11.0941C13.6536 11.1039 13.7108 11.1211 13.7436 11.1357L14.1493 10.2216C13.9677 10.1411 13.7818 10.1106 13.5915 10.0967C13.4063 10.0832 13.1811 10.0835 12.9167 10.0835V11.0835ZM15.1667 12.4585C15.1667 12.1737 15.1669 11.9367 15.1546 11.7428C15.142 11.545 15.1148 11.3575 15.0442 11.1748L14.1115 11.5354C14.1297 11.5825 14.147 11.6555 14.1566 11.8063C14.1664 11.9611 14.1667 12.1609 14.1667 12.4585H15.1667ZM13.7436 11.1357C13.9019 11.2059 14.0382 11.3458 14.1115 11.5354L15.0442 11.1748C14.8807 10.7519 14.5627 10.4051 14.1493 10.2216L13.7436 11.1357ZM11.75 10.0835C11.4855 10.0835 11.2603 10.0832 11.0752 10.0967C10.8848 10.1106 10.6989 10.1411 10.5174 10.2216L10.923 11.1357C10.9559 11.1211 11.0131 11.1039 11.1481 11.0941C11.2884 11.0838 11.4709 11.0835 11.75 11.0835V10.0835ZM10.5 12.4585C10.5 12.1609 10.5002 11.9611 10.5101 11.8063C10.5197 11.6555 10.537 11.5825 10.5552 11.5354L9.62245 11.1748C9.55185 11.3575 9.52471 11.545 9.51211 11.7428C9.49976 11.9367 9.5 12.1737 9.5 12.4585H10.5ZM10.5174 10.2216C10.1039 10.4051 9.78594 10.7519 9.62245 11.1748L10.5552 11.5354C10.6285 11.3458 10.7647 11.2059 10.923 11.1357L10.5174 10.2216ZM11.6667 10.5835V9.4585H10.6667V10.5835H11.6667ZM13 9.4585V10.5835H14V9.4585H13ZM12.3333 8.8335C12.7188 8.8335 13 9.1303 13 9.4585H14C14 8.54405 13.2365 7.8335 12.3333 7.8335V8.8335ZM11.6667 9.4585C11.6667 9.1303 11.9478 8.8335 12.3333 8.8335V7.8335C11.4302 7.8335 10.6667 8.54405 10.6667 9.4585H11.6667Z" fill="#FE9602"/>
<path id="Vector_2" d="M8.00149 13.6667C4.85794 13.6667 3.28616 13.6667 2.30958 12.6904C1.33301 11.7141 1.33301 10.1428 1.33301 7.00008V4.96293C1.33301 3.75195 1.33301 3.14646 1.58662 2.69212C1.76741 2.36826 2.03471 2.10103 2.35866 1.92029C2.81312 1.66675 3.41878 1.66675 4.63009 1.66675C5.40613 1.66675 5.79415 1.66675 6.13382 1.79409C6.90934 2.08483 7.22914 2.78913 7.57908 3.48883L8.00149 4.33341M4.66725 4.33341H11.169C12.5739 4.33341 13.2763 4.33341 13.7809 4.67048C13.9993 4.81639 14.1869 5.00389 14.3328 5.22227C14.5955 5.6153 14.6535 6.12837 14.6663 7.00008" stroke="#FE9602" stroke-linecap="round"/>
</g>
</g>
</svg>
