<svg width="141" height="141" viewBox="0 0 141 141" fill="none" xmlns="http://www.w3.org/2000/svg">
<g id="Group 187">
<g id="Ellipse 44" filter="url(#filter0_f_95_190)">
<ellipse cx="70.4033" cy="70.3022" rx="18.2017" ry="18.2016" fill="url(#paint0_linear_95_190)"/>
</g>
<ellipse id="Ellipse 41" cx="70.4032" cy="70.3028" rx="22.7521" ry="22.7521" fill="url(#paint1_linear_95_190)"/>
<g id="Ellipse 43" filter="url(#filter1_bd_95_190)">
<mask id="path-3-inside-1_95_190" fill="white">
<path d="M43.6419 73.2031C43.0497 73.116 42.4964 73.5254 42.4376 74.121C42.0982 77.5621 42.5471 81.0404 43.7564 84.2899C45.0918 87.8785 47.3113 91.072 50.2093 93.5746C53.1073 96.0772 56.5901 97.8079 60.3349 98.6065C63.7259 99.3296 67.2325 99.2671 70.5874 98.4301C71.1682 98.2852 71.4926 97.6782 71.3202 97.105L65.2783 77.0145C65.1572 76.6119 64.8141 76.3156 64.3981 76.2545L43.6419 73.2031Z"/>
</mask>
<path d="M43.6419 73.2031C43.0497 73.116 42.4964 73.5254 42.4376 74.121C42.0982 77.5621 42.5471 81.0404 43.7564 84.2899C45.0918 87.8785 47.3113 91.072 50.2093 93.5746C53.1073 96.0772 56.5901 97.8079 60.3349 98.6065C63.7259 99.3296 67.2325 99.2671 70.5874 98.4301C71.1682 98.2852 71.4926 97.6782 71.3202 97.105L65.2783 77.0145C65.1572 76.6119 64.8141 76.3156 64.3981 76.2545L43.6419 73.2031Z" fill="url(#paint2_linear_95_190)" shape-rendering="crispEdges"/>
<path d="M43.6419 73.2031C43.0497 73.116 42.4964 73.5254 42.4376 74.121C42.0982 77.5621 42.5471 81.0404 43.7564 84.2899C45.0918 87.8785 47.3113 91.072 50.2093 93.5746C53.1073 96.0772 56.5901 97.8079 60.3349 98.6065C63.7259 99.3296 67.2325 99.2671 70.5874 98.4301C71.1682 98.2852 71.4926 97.6782 71.3202 97.105L65.2783 77.0145C65.1572 76.6119 64.8141 76.3156 64.3981 76.2545L43.6419 73.2031Z" stroke="url(#paint3_linear_95_190)" stroke-width="4.33479" shape-rendering="crispEdges" mask="url(#path-3-inside-1_95_190)"/>
</g>
<g id="Ellipse 42" filter="url(#filter2_bd_95_190)">
<mask id="path-4-inside-2_95_190" fill="white">
<path d="M94.3468 65.7521C94.9453 65.7521 95.4332 65.2666 95.4047 64.6687C95.2799 62.0509 94.7036 59.4715 93.6986 57.0452C92.5552 54.2848 90.8793 51.7766 88.7666 49.6639C86.6538 47.5512 84.1457 45.8753 81.3853 44.7319C78.9589 43.7269 76.3795 43.1506 73.7617 43.0258C73.1639 42.9973 72.6784 43.4852 72.6784 44.0837V64.6684C72.6784 65.2669 73.1636 65.7521 73.7621 65.7521H94.3468Z"/>
</mask>
<path d="M94.3468 65.7521C94.9453 65.7521 95.4332 65.2666 95.4047 64.6687C95.2799 62.0509 94.7036 59.4715 93.6986 57.0452C92.5552 54.2848 90.8793 51.7766 88.7666 49.6639C86.6538 47.5512 84.1457 45.8753 81.3853 44.7319C78.9589 43.7269 76.3795 43.1506 73.7617 43.0258C73.1639 42.9973 72.6784 43.4852 72.6784 44.0837V64.6684C72.6784 65.2669 73.1636 65.7521 73.7621 65.7521H94.3468Z" fill="url(#paint4_linear_95_190)" shape-rendering="crispEdges"/>
<path d="M94.3468 65.7521C94.9453 65.7521 95.4332 65.2666 95.4047 64.6687C95.2799 62.0509 94.7036 59.4715 93.6986 57.0452C92.5552 54.2848 90.8793 51.7766 88.7666 49.6639C86.6538 47.5512 84.1457 45.8753 81.3853 44.7319C78.9589 43.7269 76.3795 43.1506 73.7617 43.0258C73.1639 42.9973 72.6784 43.4852 72.6784 44.0837V64.6684C72.6784 65.2669 73.1636 65.7521 73.7621 65.7521H94.3468Z" stroke="url(#paint5_linear_95_190)" stroke-width="4.33479" shape-rendering="crispEdges" mask="url(#path-4-inside-2_95_190)"/>
</g>
</g>
<defs>
<filter id="filter0_f_95_190" x="0.184116" y="0.0830421" width="140.438" height="140.438" filterUnits="userSpaceOnUse" color-interpolation-filters="sRGB">
<feFlood flood-opacity="0" result="BackgroundImageFix"/>
<feBlend mode="normal" in="SourceGraphic" in2="BackgroundImageFix" result="shape"/>
<feGaussianBlur stdDeviation="26.0088" result="effect1_foregroundBlur_95_190"/>
</filter>
<filter id="filter1_bd_95_190" x="33.658" y="64.5218" width="46.378" height="51.9241" filterUnits="userSpaceOnUse" color-interpolation-filters="sRGB">
<feFlood flood-opacity="0" result="BackgroundImageFix"/>
<feGaussianBlur in="BackgroundImageFix" stdDeviation="4.33479"/>
<feComposite in2="SourceAlpha" operator="in" result="effect1_backgroundBlur_95_190"/>
<feColorMatrix in="SourceAlpha" type="matrix" values="0 0 0 0 0 0 0 0 0 0 0 0 0 0 0 0 0 0 127 0" result="hardAlpha"/>
<feOffset dy="8.66959"/>
<feGaussianBlur stdDeviation="4.33479"/>
<feComposite in2="hardAlpha" operator="out"/>
<feColorMatrix type="matrix" values="0 0 0 0 0 0 0 0 0 0 0 0 0 0 0 0 0 0 0.25 0"/>
<feBlend mode="normal" in2="effect1_backgroundBlur_95_190" result="effect2_dropShadow_95_190"/>
<feBlend mode="normal" in="SourceGraphic" in2="effect2_dropShadow_95_190" result="shape"/>
</filter>
<filter id="filter2_bd_95_190" x="64.0089" y="34.3551" width="40.0667" height="48.7361" filterUnits="userSpaceOnUse" color-interpolation-filters="sRGB">
<feFlood flood-opacity="0" result="BackgroundImageFix"/>
<feGaussianBlur in="BackgroundImageFix" stdDeviation="4.33479"/>
<feComposite in2="SourceAlpha" operator="in" result="effect1_backgroundBlur_95_190"/>
<feColorMatrix in="SourceAlpha" type="matrix" values="0 0 0 0 0 0 0 0 0 0 0 0 0 0 0 0 0 0 127 0" result="hardAlpha"/>
<feOffset dy="8.66959"/>
<feGaussianBlur stdDeviation="4.33479"/>
<feComposite in2="hardAlpha" operator="out"/>
<feColorMatrix type="matrix" values="0 0 0 0 0 0 0 0 0 0 0 0 0 0 0 0 0 0 0.25 0"/>
<feBlend mode="normal" in2="effect1_backgroundBlur_95_190" result="effect2_dropShadow_95_190"/>
<feBlend mode="normal" in="SourceGraphic" in2="effect2_dropShadow_95_190" result="shape"/>
</filter>
<linearGradient id="paint0_linear_95_190" x1="52.2017" y1="52.1006" x2="88.6049" y2="88.504" gradientUnits="userSpaceOnUse">
<stop stop-color="#FD6E6A"/>
<stop offset="1" stop-color="#FFC600"/>
</linearGradient>
<linearGradient id="paint1_linear_95_190" x1="47.6511" y1="47.5508" x2="93.1552" y2="93.055" gradientUnits="userSpaceOnUse">
<stop stop-color="#FD6E6A"/>
<stop offset="1" stop-color="#FFC600"/>
</linearGradient>
<linearGradient id="paint2_linear_95_190" x1="104.346" y1="67.4989" x2="33.9999" y2="84.6826" gradientUnits="userSpaceOnUse">
<stop stop-color="white" stop-opacity="0.2"/>
<stop offset="1" stop-color="white" stop-opacity="0.5"/>
</linearGradient>
<linearGradient id="paint3_linear_95_190" x1="62.968" y1="43.6093" x2="73.9764" y2="106.449" gradientUnits="userSpaceOnUse">
<stop stop-color="white" stop-opacity="0"/>
<stop offset="1" stop-color="white"/>
</linearGradient>
<linearGradient id="paint4_linear_95_190" x1="43.1006" y1="93.0545" x2="95.4304" y2="42.9998" gradientUnits="userSpaceOnUse">
<stop stop-color="white" stop-opacity="0.2"/>
<stop offset="1" stop-color="white" stop-opacity="0.5"/>
</linearGradient>
<linearGradient id="paint5_linear_95_190" x1="90.8801" y1="93.0545" x2="49.9264" y2="44.1375" gradientUnits="userSpaceOnUse">
<stop stop-color="white" stop-opacity="0"/>
<stop offset="1" stop-color="white"/>
</linearGradient>
</defs>
</svg>
