<svg width="161" height="147" viewBox="0 0 161 147" fill="none" xmlns="http://www.w3.org/2000/svg">
<path d="M119.475 81.9919C118.117 74.5614 111.949 68.9536 104.541 68.9536C97.1333 68.9536 90.9653 74.5614 89.6068 81.9919C89.3123 83.5955 90.5081 85.0825 92.0468 85.0825H117.031C118.574 85.0825 119.765 83.6001 119.471 81.9919H119.475Z" fill="url(#paint0_linear_95_160)"/>
<path d="M104.539 64.3454C108.993 64.3454 112.603 60.7349 112.603 56.281C112.603 51.8271 108.993 48.2166 104.539 48.2166C100.085 48.2166 96.4744 51.8271 96.4744 56.281C96.4744 60.7349 100.085 64.3454 104.539 64.3454Z" fill="url(#paint1_linear_95_160)"/>
<g filter="url(#filter0_f_95_160)">
<path d="M100.747 81.7532C98.9276 69.4295 90.665 60.1287 80.7417 60.1287C70.8184 60.1287 62.5559 69.4295 60.7361 81.7532C60.3415 84.4128 61.9434 86.8791 64.0046 86.8791H97.4729C99.5401 86.8791 101.136 84.4205 100.741 81.7532H100.747Z" fill="url(#paint2_linear_95_160)"/>
</g>
<g filter="url(#filter1_bd_95_160)">
<path d="M100.895 86.5276C100.897 86.5276 100.899 86.526 100.898 86.5242C98.8125 75.7733 89.3491 67.6599 77.9838 67.6599C66.6174 67.6599 57.1532 75.775 55.0688 86.5276C54.6168 88.8481 56.4517 90.9999 58.8126 90.9999H97.1483C99.5149 90.9999 101.342 88.8569 100.893 86.5309C100.892 86.5292 100.894 86.5276 100.895 86.5276Z" fill="url(#paint3_linear_95_160)" shape-rendering="crispEdges"/>
<path d="M100.895 87.6796C100.909 87.6796 100.922 87.6794 100.935 87.679C100.922 87.6794 100.909 87.6796 100.895 87.6796ZM77.9838 68.812C88.7474 68.812 97.718 76.4673 99.7449 86.6303C99.7484 86.6699 99.7539 86.7097 99.7616 86.7495C100.069 88.3404 98.8158 89.8479 97.1483 89.8479H58.8126C57.1503 89.8479 55.8911 88.3318 56.1996 86.7478L56.1998 86.7468C58.1811 76.5259 67.1792 68.812 77.9838 68.812Z" stroke="url(#paint4_linear_95_160)" stroke-width="2.30413" shape-rendering="crispEdges"/>
</g>
<g filter="url(#filter2_bd_95_160)">
<path d="M77.9836 62.1781C84.384 62.1781 89.5726 56.9895 89.5726 50.589C89.5726 44.1886 84.384 39 77.9836 39C71.5831 39 66.3945 44.1886 66.3945 50.589C66.3945 56.9895 71.5831 62.1781 77.9836 62.1781Z" fill="url(#paint5_linear_95_160)" shape-rendering="crispEdges"/>
<path d="M88.4206 50.589C88.4206 56.3532 83.7478 61.026 77.9836 61.026C72.2194 61.026 67.5466 56.3532 67.5466 50.589C67.5466 44.8249 72.2194 40.1521 77.9836 40.1521C83.7478 40.1521 88.4206 44.8249 88.4206 50.589Z" stroke="url(#paint6_linear_95_160)" stroke-width="2.30413" shape-rendering="crispEdges"/>
</g>
<defs>
<filter id="filter0_f_95_160" x="0.768749" y="0.221386" width="159.94" height="146.565" filterUnits="userSpaceOnUse" color-interpolation-filters="sRGB">
<feFlood flood-opacity="0" result="BackgroundImageFix"/>
<feBlend mode="normal" in="SourceGraphic" in2="BackgroundImageFix" result="shape"/>
<feGaussianBlur stdDeviation="29.9536" result="effect1_foregroundBlur_95_160"/>
</filter>
<filter id="filter1_bd_95_160" x="45.7835" y="58.4434" width="64.3942" height="50.9896" filterUnits="userSpaceOnUse" color-interpolation-filters="sRGB">
<feFlood flood-opacity="0" result="BackgroundImageFix"/>
<feGaussianBlur in="BackgroundImageFix" stdDeviation="4.60825"/>
<feComposite in2="SourceAlpha" operator="in" result="effect1_backgroundBlur_95_160"/>
<feColorMatrix in="SourceAlpha" type="matrix" values="0 0 0 0 0 0 0 0 0 0 0 0 0 0 0 0 0 0 127 0" result="hardAlpha"/>
<feOffset dy="9.2165"/>
<feGaussianBlur stdDeviation="4.60825"/>
<feComposite in2="hardAlpha" operator="out"/>
<feColorMatrix type="matrix" values="0 0 0 0 0 0 0 0 0 0 0 0 0 0 0 0 0 0 0.25 0"/>
<feBlend mode="normal" in2="effect1_backgroundBlur_95_160" result="effect2_dropShadow_95_160"/>
<feBlend mode="normal" in="SourceGraphic" in2="effect2_dropShadow_95_160" result="shape"/>
</filter>
<filter id="filter2_bd_95_160" x="57.178" y="29.7835" width="41.6112" height="50.8275" filterUnits="userSpaceOnUse" color-interpolation-filters="sRGB">
<feFlood flood-opacity="0" result="BackgroundImageFix"/>
<feGaussianBlur in="BackgroundImageFix" stdDeviation="4.60825"/>
<feComposite in2="SourceAlpha" operator="in" result="effect1_backgroundBlur_95_160"/>
<feColorMatrix in="SourceAlpha" type="matrix" values="0 0 0 0 0 0 0 0 0 0 0 0 0 0 0 0 0 0 127 0" result="hardAlpha"/>
<feOffset dy="9.2165"/>
<feGaussianBlur stdDeviation="4.60825"/>
<feComposite in2="hardAlpha" operator="out"/>
<feColorMatrix type="matrix" values="0 0 0 0 0 0 0 0 0 0 0 0 0 0 0 0 0 0 0.25 0"/>
<feBlend mode="normal" in2="effect1_backgroundBlur_95_160" result="effect2_dropShadow_95_160"/>
<feBlend mode="normal" in="SourceGraphic" in2="effect2_dropShadow_95_160" result="shape"/>
</filter>
<linearGradient id="paint0_linear_95_160" x1="89.562" y1="68.9536" x2="103.027" y2="93.9608" gradientUnits="userSpaceOnUse">
<stop stop-color="#FD6E6A"/>
<stop offset="1" stop-color="#FFC600"/>
</linearGradient>
<linearGradient id="paint1_linear_95_160" x1="96.4744" y1="48.2166" x2="112.603" y2="64.3454" gradientUnits="userSpaceOnUse">
<stop stop-color="#FD6E6A"/>
<stop offset="1" stop-color="#FFC600"/>
</linearGradient>
<linearGradient id="paint2_linear_95_160" x1="60.676" y1="60.1287" x2="85.3687" y2="97.1677" gradientUnits="userSpaceOnUse">
<stop stop-color="#FD6E6A"/>
<stop offset="1" stop-color="#FFC600"/>
</linearGradient>
<linearGradient id="paint3_linear_95_160" x1="48.1058" y1="93.3339" x2="70.3612" y2="51.4143" gradientUnits="userSpaceOnUse">
<stop stop-color="white" stop-opacity="0.2"/>
<stop offset="1" stop-color="white" stop-opacity="0.5"/>
</linearGradient>
<linearGradient id="paint4_linear_95_160" x1="96.365" y1="93.3339" x2="80.9983" y2="57.1901" gradientUnits="userSpaceOnUse">
<stop stop-color="white" stop-opacity="0"/>
<stop offset="1" stop-color="white"/>
</linearGradient>
<linearGradient id="paint5_linear_95_160" x1="62.9178" y1="64.4959" x2="89.5726" y2="39" gradientUnits="userSpaceOnUse">
<stop stop-color="white" stop-opacity="0.2"/>
<stop offset="1" stop-color="white" stop-opacity="0.5"/>
</linearGradient>
<linearGradient id="paint6_linear_95_160" x1="87.2548" y1="64.4959" x2="66.3945" y2="39.5794" gradientUnits="userSpaceOnUse">
<stop stop-color="white" stop-opacity="0"/>
<stop offset="1" stop-color="white"/>
</linearGradient>
</defs>
</svg>
