<svg width="16" height="16" viewBox="0 0 16 16" fill="none" xmlns="http://www.w3.org/2000/svg">
<g id="information-diamond" clip-path="url(#clip0_1035_909)">
<g id="elements">
<path id="Vector" d="M10.8709 2.92279C10.4769 2.92279 10.2799 2.92279 10.1004 2.8562C10.0755 2.84695 10.0509 2.83677 10.0267 2.82568C9.85272 2.74586 9.71341 2.60655 9.4348 2.32794C8.79353 1.68667 8.4729 1.36604 8.07838 1.33648C8.02533 1.3325 7.97206 1.3325 7.91902 1.33648C7.5245 1.36604 7.20386 1.68667 6.5626 2.32794C6.28399 2.60655 6.14468 2.74586 5.97068 2.82568C5.94651 2.83677 5.92194 2.84695 5.89701 2.8562C5.71753 2.92279 5.52052 2.92279 5.1265 2.92279H5.05382C4.04855 2.92279 3.54592 2.92279 3.23362 3.23509C2.92133 3.54738 2.92133 4.05002 2.92133 5.05529V5.12797C2.92133 5.52199 2.92133 5.719 2.85473 5.89848C2.84548 5.9234 2.8353 5.94798 2.82422 5.97214C2.7444 6.14614 2.60509 6.28545 2.32647 6.56406C1.68521 7.20533 1.36458 7.52596 1.33501 7.92048C1.33104 7.97353 1.33104 8.0268 1.33501 8.07984C1.36458 8.47436 1.68521 8.795 2.32647 9.43626C2.60509 9.71487 2.7444 9.85418 2.82422 10.0282C2.8353 10.0523 2.84548 10.0769 2.85473 10.1018C2.92133 10.2813 2.92133 10.4783 2.92133 10.8724V10.945C2.92133 11.9503 2.92133 12.4529 3.23362 12.7652C3.54592 13.0775 4.04855 13.0775 5.05382 13.0775H5.1265C5.52052 13.0775 5.71753 13.0775 5.89701 13.1441C5.92194 13.1534 5.94651 13.1636 5.97068 13.1746C6.14468 13.2545 6.28399 13.3938 6.5626 13.6724C7.20386 14.3136 7.5245 14.6343 7.91902 14.6638C7.97206 14.6678 8.02533 14.6678 8.07838 14.6638C8.4729 14.6343 8.79353 14.3137 9.4348 13.6724C9.71341 13.3938 9.85272 13.2545 10.0267 13.1746C10.0509 13.1636 10.0755 13.1534 10.1004 13.1441C10.2799 13.0775 10.4769 13.0775 10.8709 13.0775H10.9436C11.9488 13.0775 12.4515 13.0775 12.7638 12.7652C13.0761 12.4529 13.0761 11.9503 13.0761 10.945V10.8724C13.0761 10.4783 13.0761 10.2813 13.1427 10.1018C13.1519 10.0769 13.1621 10.0523 13.1732 10.0282C13.253 9.85418 13.3923 9.71487 13.6709 9.43626C14.3122 8.795 14.6328 8.47436 14.6624 8.07984C14.6664 8.0268 14.6664 7.97353 14.6624 7.92048C14.6328 7.52596 14.3122 7.20533 13.6709 6.56406C13.3923 6.28545 13.253 6.14614 13.1732 5.97214C13.1621 5.94798 13.1519 5.9234 13.1427 5.89848C13.0761 5.719 13.0761 5.52199 13.0761 5.12797V5.05529C13.0761 4.05002 13.0761 3.54738 12.7638 3.23509C12.4515 2.92279 11.9488 2.92279 10.9436 2.92279H10.8709Z" stroke="#FE9602"/>
<path id="Vector 2612" d="M8.15983 10.6668V8.00016C8.15983 7.68589 8.15983 7.52876 8.0622 7.43113C7.96457 7.3335 7.80743 7.3335 7.49316 7.3335" stroke="#FE9602" stroke-linecap="round" stroke-linejoin="round"/>
<path id="Vector_2" d="M7.99304 5.3335H7.99902" stroke="#FE9602" stroke-width="1.33333" stroke-linecap="round" stroke-linejoin="round"/>
</g>
</g>
<defs>
<clipPath id="clip0_1035_909">
<rect width="16" height="16" fill="white"/>
</clipPath>
</defs>
</svg>
