<svg width="16" height="16" viewBox="0 0 16 16" fill="none" xmlns="http://www.w3.org/2000/svg">
<g id="location-user-02">
<g id="elements">
<path id="Rectangle 2217" d="M8.66573 4.66675H7.33492C5.42163 4.66675 4.13167 6.71281 4.88535 8.5521C4.99033 8.80832 5.23121 8.97444 5.49774 8.97444H5.96639C6.12436 8.97444 6.26205 9.08688 6.30036 9.24716L6.90369 11.7712C7.0295 12.2975 7.48163 12.6667 8.00033 12.6667C8.51902 12.6667 8.97115 12.2975 9.09696 11.7712L9.70029 9.24716C9.7386 9.08688 9.87629 8.97444 10.0343 8.97444H10.5029C10.7694 8.97444 11.0103 8.80832 11.1153 8.5521C11.869 6.71281 10.579 4.66675 8.66573 4.66675Z" stroke="#FE9602"/>
<path id="Ellipse 1547" d="M9.66732 3.00016C9.66732 3.92064 8.92113 4.66683 8.00065 4.66683C7.08018 4.66683 6.33398 3.92064 6.33398 3.00016C6.33398 2.07969 7.08018 1.3335 8.00065 1.3335C8.92113 1.3335 9.66732 2.07969 9.66732 3.00016Z" stroke="#FE9602"/>
<path id="Ellipse 1591" d="M12.6673 12.6667C12.6673 13.7713 10.578 14.6667 8.00065 14.6667C5.42332 14.6667 3.33398 13.7713 3.33398 12.6667" stroke="#FE9602" stroke-linecap="round"/>
</g>
</g>
</svg>
