<svg width="16" height="16" viewBox="0 0 16 16" fill="none" xmlns="http://www.w3.org/2000/svg">
<g id="location-03">
<g id="elements">
<path id="Ellipse 1590" d="M9.66634 5.99992C9.66634 6.92039 8.92015 7.66659 7.99967 7.66659C7.0792 7.66659 6.33301 6.92039 6.33301 5.99992C6.33301 5.07944 7.0792 4.33325 7.99967 4.33325C8.92015 4.33325 9.66634 5.07944 9.66634 5.99992Z" stroke="#FE9602"/>
<path id="Vector 4653" d="M12.1475 11.3333C13.0772 12.6589 13.5219 13.3649 13.257 13.9332C13.2304 13.9902 13.1993 14.0452 13.1639 14.0977C12.7809 14.6666 11.791 14.6666 9.8112 14.6666H6.1875C4.20769 14.6666 3.21778 14.6666 2.83476 14.0977C2.79938 14.0452 2.76828 13.9902 2.74171 13.9332C2.47681 13.3649 2.92152 12.6589 3.8512 11.3333" stroke="#FE9602" stroke-linecap="round" stroke-linejoin="round"/>
<path id="Vector" d="M8.83794 11.6623C8.61309 11.8789 8.31255 11.9999 7.99978 11.9999C7.687 11.9999 7.38646 11.8789 7.16161 11.6623C5.10254 9.66711 2.34313 7.43828 3.68881 4.20241C4.41641 2.4528 6.16297 1.33325 7.99978 1.33325C9.83658 1.33325 11.5831 2.4528 12.3107 4.20241C13.6547 7.4342 10.9021 9.67398 8.83794 11.6623Z" stroke="#FE9602"/>
</g>
</g>
</svg>
