<svg width="196" height="223" viewBox="0 0 196 223" fill="none" xmlns="http://www.w3.org/2000/svg">
<g id="Group 304">
<g id="Vector 15" filter="url(#filter0_f_112_25333)">
<path d="M118.028 148.003L98.6465 131.244C98.0628 130.739 97.1972 130.739 96.6135 131.244L77.2317 148.003C76.225 148.874 74.6611 148.159 74.6611 146.828V76.3065C74.6611 75.4482 75.3569 74.7524 76.2152 74.7524H97.63H119.045C119.903 74.7524 120.599 75.4482 120.599 76.3065V146.828C120.599 148.159 119.035 148.874 118.028 148.003Z" fill="url(#paint0_linear_112_25333)"/>
</g>
<g id="Vector 7" filter="url(#filter1_di_112_25333)">
<path d="M82.0472 154.828L77.7311 142.843C77.4742 142.129 76.7401 141.706 75.9939 141.84L63.457 144.094C62.1553 144.328 61.1748 142.933 61.8361 141.788L80.7196 109.078C81.1487 108.335 82.0991 108.08 82.8424 108.51L93.0062 114.378L103.17 120.246C103.913 120.675 104.168 121.626 103.739 122.369L84.8552 155.078C84.194 156.224 82.4954 156.072 82.0472 154.828Z" fill="url(#paint1_linear_112_25333)"/>
</g>
<g id="Vector 14" filter="url(#filter2_di_112_25333)">
<path d="M128.286 144.117L115.749 141.862C115.003 141.728 114.269 142.152 114.012 142.865L109.696 154.85C109.247 156.095 107.549 156.246 106.888 155.101L88.0041 122.392C87.5749 121.648 87.8296 120.698 88.5729 120.269L98.7366 114.4L108.9 108.532C109.644 108.103 110.594 108.357 111.023 109.101L129.907 141.81C130.568 142.955 129.587 144.351 128.286 144.117Z" fill="url(#paint2_linear_112_25333)"/>
</g>
<g id="Vector" filter="url(#filter3_bd_112_25333)">
<path d="M128.145 82.8707C127.615 82.5207 127.31 81.9105 127.35 81.2768C127.369 80.9771 127.378 80.678 127.378 80.3796C127.378 71.8584 120.008 64.9538 111.568 65.4859C110.932 65.526 110.318 65.2209 109.966 64.6889C107.27 60.6043 102.642 58 97.5407 58C92.4388 58 87.8111 60.6044 85.1148 64.6891C84.7637 65.221 84.1496 65.5261 83.5135 65.486C75.0579 64.9525 67.7031 71.8576 67.7031 80.3796C67.7031 80.678 67.7126 80.9771 67.7314 81.2768C67.7711 81.9105 67.4663 82.5207 66.9364 82.8707C62.8497 85.5698 60.2437 90.1989 60.2437 95.2993C60.2437 100.399 62.8491 105.028 66.9351 107.727C67.4657 108.077 67.7706 108.689 67.7313 109.323C67.7129 109.621 67.7035 109.92 67.7031 110.219C67.7031 118.742 75.0591 125.63 83.5157 125.11C84.1506 125.071 84.7632 125.377 85.1135 125.908C87.8096 129.993 92.438 132.599 97.5407 132.599C102.643 132.599 107.272 129.993 109.968 125.908C110.318 125.377 110.931 125.072 111.566 125.111C120.006 125.629 127.378 118.741 127.378 110.219C127.378 109.921 127.369 109.621 127.35 109.322C127.31 108.688 127.615 108.078 128.145 107.728C132.232 105.029 134.838 100.4 134.838 95.2993C134.838 90.1989 132.232 85.5698 128.145 82.8707Z" fill="url(#paint3_linear_112_25333)" shape-rendering="crispEdges"/>
<path d="M86.4118 65.5453L85.1148 64.6891L86.4118 65.5453C88.8273 61.8859 92.9733 59.5541 97.5407 59.5541C102.108 59.5541 106.254 61.8858 108.669 65.545C109.328 66.5432 110.476 67.1119 111.666 67.0369C119.208 66.5614 125.824 72.7529 125.824 80.3796C125.824 80.6447 125.816 80.9115 125.799 81.1796C125.724 82.3701 126.295 83.5115 127.288 84.1675C130.951 86.5861 133.284 90.7339 133.284 95.2993C133.284 99.8647 130.951 104.012 127.288 106.431C126.295 107.087 125.724 108.228 125.799 109.419C125.816 109.687 125.824 109.954 125.824 110.219C125.824 117.843 119.209 124.023 111.661 123.559C110.472 123.486 109.328 124.055 108.671 125.052C106.255 128.712 102.109 131.044 97.5407 131.044C92.9726 131.044 88.826 128.712 86.4107 125.052C85.7533 124.055 84.6092 123.486 83.4204 123.559C75.8578 124.024 69.2579 117.846 69.2571 110.22C69.2575 109.953 69.266 109.686 69.2825 109.419C69.3561 108.23 68.7861 107.087 67.7917 106.43C64.1303 104.012 61.7977 99.8642 61.7977 95.2993C61.7977 90.7339 64.1307 86.5861 67.7929 84.1675C68.7862 83.5115 69.357 82.3701 69.2824 81.1796C69.2657 80.9115 69.2571 80.6447 69.2571 80.3796C69.2571 72.751 75.8584 66.5602 83.4157 67.037C84.6061 67.1121 85.7531 66.5432 86.4118 65.5453Z" stroke="url(#paint4_linear_112_25333)" stroke-width="3.10818" shape-rendering="crispEdges"/>
</g>
<g id="Star 1" filter="url(#filter4_di_112_25333)">
<path d="M96.4471 83.3972C96.8192 82.2517 98.4398 82.2517 98.8119 83.3972L101.034 90.2359C101.2 90.7482 101.678 91.095 102.216 91.095H109.407C110.611 91.095 111.112 92.6362 110.137 93.3441L104.32 97.5709C103.884 97.8874 103.702 98.4486 103.869 98.9608L106.091 105.8C106.463 106.945 105.152 107.898 104.177 107.19L98.3603 102.963C97.9245 102.647 97.3345 102.647 96.8987 102.963L91.0817 107.19C90.1073 107.898 88.7963 106.945 89.1685 105.8L91.3904 98.9608C91.5569 98.4486 91.3745 97.8874 90.9388 97.5709L85.1215 93.3441C84.1472 92.6362 84.648 91.095 85.8523 91.095H93.0427C93.5814 91.095 94.0587 90.7482 94.2252 90.2359L96.4471 83.3972Z" fill="url(#paint5_linear_112_25333)" shape-rendering="crispEdges"/>
</g>
</g>
<defs>
<filter id="filter0_f_112_25333" x="0.0648193" y="0.156128" width="195.131" height="222.825" filterUnits="userSpaceOnUse" color-interpolation-filters="sRGB">
<feFlood flood-opacity="0" result="BackgroundImageFix"/>
<feBlend mode="normal" in="SourceGraphic" in2="BackgroundImageFix" result="shape"/>
<feGaussianBlur stdDeviation="37.2982" result="effect1_foregroundBlur_112_25333"/>
</filter>
<filter id="filter1_di_112_25333" x="56.9618" y="106.747" width="51.6478" height="61.5415" filterUnits="userSpaceOnUse" color-interpolation-filters="sRGB">
<feFlood flood-opacity="0" result="BackgroundImageFix"/>
<feColorMatrix in="SourceAlpha" type="matrix" values="0 0 0 0 0 0 0 0 0 0 0 0 0 0 0 0 0 0 127 0" result="hardAlpha"/>
<feOffset dy="3.10818"/>
<feGaussianBlur stdDeviation="2.33113"/>
<feComposite in2="hardAlpha" operator="out"/>
<feColorMatrix type="matrix" values="0 0 0 0 0 0 0 0 0 0 0 0 0 0 0 0 0 0 0.25 0"/>
<feBlend mode="normal" in2="BackgroundImageFix" result="effect1_dropShadow_112_25333"/>
<feBlend mode="normal" in="SourceGraphic" in2="effect1_dropShadow_112_25333" result="shape"/>
<feColorMatrix in="SourceAlpha" type="matrix" values="0 0 0 0 0 0 0 0 0 0 0 0 0 0 0 0 0 0 127 0" result="hardAlpha"/>
<feOffset dy="24.8654"/>
<feGaussianBlur stdDeviation="6.21636"/>
<feComposite in2="hardAlpha" operator="arithmetic" k2="-1" k3="1"/>
<feColorMatrix type="matrix" values="0 0 0 0 1 0 0 0 0 1 0 0 0 0 1 0 0 0 0.25 0"/>
<feBlend mode="normal" in2="shape" result="effect2_innerShadow_112_25333"/>
</filter>
<filter id="filter2_di_112_25333" x="83.1331" y="106.769" width="51.6478" height="61.5415" filterUnits="userSpaceOnUse" color-interpolation-filters="sRGB">
<feFlood flood-opacity="0" result="BackgroundImageFix"/>
<feColorMatrix in="SourceAlpha" type="matrix" values="0 0 0 0 0 0 0 0 0 0 0 0 0 0 0 0 0 0 127 0" result="hardAlpha"/>
<feOffset dy="3.10818"/>
<feGaussianBlur stdDeviation="2.33113"/>
<feComposite in2="hardAlpha" operator="out"/>
<feColorMatrix type="matrix" values="0 0 0 0 0 0 0 0 0 0 0 0 0 0 0 0 0 0 0.25 0"/>
<feBlend mode="normal" in2="BackgroundImageFix" result="effect1_dropShadow_112_25333"/>
<feBlend mode="normal" in="SourceGraphic" in2="effect1_dropShadow_112_25333" result="shape"/>
<feColorMatrix in="SourceAlpha" type="matrix" values="0 0 0 0 0 0 0 0 0 0 0 0 0 0 0 0 0 0 127 0" result="hardAlpha"/>
<feOffset dy="24.8654"/>
<feGaussianBlur stdDeviation="6.21636"/>
<feComposite in2="hardAlpha" operator="arithmetic" k2="-1" k3="1"/>
<feColorMatrix type="matrix" values="0 0 0 0 1 0 0 0 0 1 0 0 0 0 1 0 0 0 0.25 0"/>
<feBlend mode="normal" in2="shape" result="effect2_innerShadow_112_25333"/>
</filter>
<filter id="filter3_bd_112_25333" x="47.8109" y="45.5673" width="99.4597" height="111.897" filterUnits="userSpaceOnUse" color-interpolation-filters="sRGB">
<feFlood flood-opacity="0" result="BackgroundImageFix"/>
<feGaussianBlur in="BackgroundImageFix" stdDeviation="6.21636"/>
<feComposite in2="SourceAlpha" operator="in" result="effect1_backgroundBlur_112_25333"/>
<feColorMatrix in="SourceAlpha" type="matrix" values="0 0 0 0 0 0 0 0 0 0 0 0 0 0 0 0 0 0 127 0" result="hardAlpha"/>
<feOffset dy="12.4327"/>
<feGaussianBlur stdDeviation="6.21636"/>
<feComposite in2="hardAlpha" operator="out"/>
<feColorMatrix type="matrix" values="0 0 0 0 0 0 0 0 0 0 0 0 0 0 0 0 0 0 0.25 0"/>
<feBlend mode="normal" in2="effect1_backgroundBlur_112_25333" result="effect2_dropShadow_112_25333"/>
<feBlend mode="normal" in="SourceGraphic" in2="effect2_dropShadow_112_25333" result="shape"/>
</filter>
<filter id="filter4_di_112_25333" x="79.9442" y="80.984" width="35.3704" height="38.8816" filterUnits="userSpaceOnUse" color-interpolation-filters="sRGB">
<feFlood flood-opacity="0" result="BackgroundImageFix"/>
<feColorMatrix in="SourceAlpha" type="matrix" values="0 0 0 0 0 0 0 0 0 0 0 0 0 0 0 0 0 0 127 0" result="hardAlpha"/>
<feOffset dy="3.10818"/>
<feGaussianBlur stdDeviation="2.33113"/>
<feComposite in2="hardAlpha" operator="out"/>
<feColorMatrix type="matrix" values="0 0 0 0 0 0 0 0 0 0 0 0 0 0 0 0 0 0 0.25 0"/>
<feBlend mode="normal" in2="BackgroundImageFix" result="effect1_dropShadow_112_25333"/>
<feBlend mode="normal" in="SourceGraphic" in2="effect1_dropShadow_112_25333" result="shape"/>
<feColorMatrix in="SourceAlpha" type="matrix" values="0 0 0 0 0 0 0 0 0 0 0 0 0 0 0 0 0 0 127 0" result="hardAlpha"/>
<feOffset dy="24.8654"/>
<feGaussianBlur stdDeviation="6.21636"/>
<feComposite in2="hardAlpha" operator="arithmetic" k2="-1" k3="1"/>
<feColorMatrix type="matrix" values="0 0 0 0 1 0 0 0 0 1 0 0 0 0 1 0 0 0 0.25 0"/>
<feBlend mode="normal" in2="shape" result="effect2_innerShadow_112_25333"/>
</filter>
<linearGradient id="paint0_linear_112_25333" x1="74.6611" y1="74.7524" x2="141.701" y2="115.557" gradientUnits="userSpaceOnUse">
<stop stop-color="#FD6E6A"/>
<stop offset="1" stop-color="#FFC600"/>
</linearGradient>
<linearGradient id="paint1_linear_112_25333" x1="81.4966" y1="107.732" x2="102.737" y2="147.544" gradientUnits="userSpaceOnUse">
<stop stop-color="#FD6E6A"/>
<stop offset="1" stop-color="#FFC600"/>
</linearGradient>
<linearGradient id="paint2_linear_112_25333" x1="87.2271" y1="121.046" x2="132.323" y2="122.558" gradientUnits="userSpaceOnUse">
<stop stop-color="#FD6E6A"/>
<stop offset="1" stop-color="#FFC600"/>
</linearGradient>
<linearGradient id="paint3_linear_112_25333" x1="49.0545" y1="140.058" x2="134.843" y2="58.0052" gradientUnits="userSpaceOnUse">
<stop stop-color="white" stop-opacity="0.2"/>
<stop offset="1" stop-color="white" stop-opacity="0.5"/>
</linearGradient>
<linearGradient id="paint4_linear_112_25333" x1="127.378" y1="140.058" x2="60.2388" y2="59.869" gradientUnits="userSpaceOnUse">
<stop stop-color="white" stop-opacity="0"/>
<stop offset="1" stop-color="white"/>
</linearGradient>
<linearGradient id="paint5_linear_112_25333" x1="76.3012" y1="115.854" x2="114.038" y2="79.7601" gradientUnits="userSpaceOnUse">
<stop stop-color="white" stop-opacity="0.2"/>
<stop offset="1" stop-color="white" stop-opacity="0.5"/>
</linearGradient>
</defs>
</svg>
