<svg width="16" height="16" viewBox="0 0 16 16" fill="none" xmlns="http://www.w3.org/2000/svg">
<g id="task-daily-01">
<g id="elements">
<path id="Vector" d="M4.99935 2.33325C3.96215 2.36437 3.34376 2.47981 2.91586 2.9081C2.33008 3.49443 2.33008 4.43812 2.33008 6.32549L2.33008 10.6629C2.33008 12.5502 2.33008 13.4939 2.91586 14.0803C3.50165 14.6666 4.44446 14.6666 6.33008 14.6666L9.66341 14.6666C11.549 14.6666 12.4918 14.6666 13.0776 14.0803C13.6634 13.4939 13.6634 12.5502 13.6634 10.6629V6.32549C13.6634 4.43812 13.6634 3.49443 13.0776 2.9081C12.6497 2.47981 12.0313 2.36437 10.9941 2.33325" stroke="#FE9602"/>
<path id="Vector_2" d="M4.99707 2.49992C4.99707 1.85559 5.5194 1.33325 6.16374 1.33325H9.8304C10.4747 1.33325 10.9971 1.85559 10.9971 2.49992C10.9971 3.14425 10.4747 3.66659 9.8304 3.66659H6.16374C5.5194 3.66659 4.99707 3.14425 4.99707 2.49992Z" stroke="#FE9602" stroke-linejoin="round"/>
<path id="Vector 3077" d="M8.99902 7.33325L11.3324 7.33325" stroke="#FE9602" stroke-linecap="round"/>
<path id="Vector 6664" d="M4.66602 7.99984C4.66602 7.99984 4.99935 7.99984 5.33268 8.6665C5.33268 8.6665 6.39151 6.99984 7.33268 6.6665" stroke="#FE9602" stroke-linecap="round" stroke-linejoin="round"/>
<path id="Vector 7155" d="M8.99902 11.3333H11.3324" stroke="#FE9602" stroke-linecap="round"/>
<path id="Vector_3" d="M5.33301 11.3333H5.99967" stroke="#FE9602" stroke-width="1.33333" stroke-linecap="round" stroke-linejoin="round"/>
</g>
</g>
</svg>
