<svg width="228" height="235" viewBox="0 0 228 235" fill="none" xmlns="http://www.w3.org/2000/svg">
<g id="Group 296">
<g id="Group 295">
<g id="Vector" filter="url(#filter0_f_112_25308)">
<path d="M114.175 92.5386L93.021 101.63V115.266C93.021 127.88 102.047 139.675 114.175 142.539C126.303 139.675 135.328 127.88 135.328 115.266V101.63L114.175 92.5386Z" fill="url(#paint0_linear_112_25308)"/>
</g>
<path id="Vector_2" d="M112.501 81L80.2432 94.2232V114.058C80.2432 132.405 94.0065 149.562 112.501 153.728C130.995 149.562 144.759 132.405 144.759 114.058V94.2232L112.501 81Z" fill="url(#paint1_linear_112_25308)"/>
<g id="Vector_3" filter="url(#filter1_bd_112_25308)">
<path d="M113.234 93.4235C112.764 93.2295 112.236 93.2295 111.766 93.4235L74.9799 108.608C74.2601 108.905 73.7905 109.607 73.7905 110.385V133.066C73.7905 155.093 90.0956 175.701 112.074 180.901C112.354 180.967 112.646 180.967 112.926 180.901C134.904 175.701 151.209 155.093 151.209 133.066V110.385C151.209 109.607 150.74 108.905 150.02 108.608L113.234 93.4235Z" fill="url(#paint2_linear_112_25308)" shape-rendering="crispEdges"/>
<path d="M75.7136 110.385L112.5 95.2011L149.286 110.385V133.066C149.286 154.183 133.615 174.021 112.5 179.026C91.3847 174.021 75.7136 154.183 75.7136 133.066L75.7136 110.385Z" stroke="url(#paint3_linear_112_25308)" stroke-width="3.84615" shape-rendering="crispEdges"/>
</g>
<g id="Vector (Stroke)" filter="url(#filter2_di_112_25308)">
<path fill-rule="evenodd" clip-rule="evenodd" d="M130.98 121.492C132.198 122.887 132.132 125.079 130.833 126.387L113.628 143.703C112.388 144.952 110.457 144.952 109.216 143.703L100.614 135.045C99.3141 133.737 99.2482 131.545 100.467 130.15C101.685 128.754 103.727 128.684 105.026 129.992L111.422 136.429L126.42 121.334C127.72 120.025 129.761 120.096 130.98 121.492Z" fill="url(#paint4_linear_112_25308)" shape-rendering="crispEdges"/>
</g>
</g>
</g>
<defs>
<filter id="filter0_f_112_25308" x="0.713394" y="0.230972" width="226.922" height="234.616" filterUnits="userSpaceOnUse" color-interpolation-filters="sRGB">
<feFlood flood-opacity="0" result="BackgroundImageFix"/>
<feBlend mode="normal" in="SourceGraphic" in2="BackgroundImageFix" result="shape"/>
<feGaussianBlur stdDeviation="46.1538" result="effect1_foregroundBlur_112_25308"/>
</filter>
<filter id="filter1_bd_112_25308" x="58.4059" y="77.8932" width="108.188" height="133.827" filterUnits="userSpaceOnUse" color-interpolation-filters="sRGB">
<feFlood flood-opacity="0" result="BackgroundImageFix"/>
<feGaussianBlur in="BackgroundImageFix" stdDeviation="7.6923"/>
<feComposite in2="SourceAlpha" operator="in" result="effect1_backgroundBlur_112_25308"/>
<feColorMatrix in="SourceAlpha" type="matrix" values="0 0 0 0 0 0 0 0 0 0 0 0 0 0 0 0 0 0 127 0" result="hardAlpha"/>
<feOffset dy="15.3846"/>
<feGaussianBlur stdDeviation="7.6923"/>
<feComposite in2="hardAlpha" operator="out"/>
<feColorMatrix type="matrix" values="0 0 0 0 0 0 0 0 0 0 0 0 0 0 0 0 0 0 0.25 0"/>
<feBlend mode="normal" in2="effect1_backgroundBlur_112_25308" result="effect2_dropShadow_112_25308"/>
<feBlend mode="normal" in="SourceGraphic" in2="effect2_dropShadow_112_25308" result="shape"/>
</filter>
<filter id="filter2_di_112_25308" x="93.825" y="118.474" width="43.7963" height="41.5504" filterUnits="userSpaceOnUse" color-interpolation-filters="sRGB">
<feFlood flood-opacity="0" result="BackgroundImageFix"/>
<feColorMatrix in="SourceAlpha" type="matrix" values="0 0 0 0 0 0 0 0 0 0 0 0 0 0 0 0 0 0 127 0" result="hardAlpha"/>
<feOffset dy="3.84615"/>
<feGaussianBlur stdDeviation="2.88461"/>
<feComposite in2="hardAlpha" operator="out"/>
<feColorMatrix type="matrix" values="0 0 0 0 0 0 0 0 0 0 0 0 0 0 0 0 0 0 0.25 0"/>
<feBlend mode="normal" in2="BackgroundImageFix" result="effect1_dropShadow_112_25308"/>
<feBlend mode="normal" in="SourceGraphic" in2="effect1_dropShadow_112_25308" result="shape"/>
<feColorMatrix in="SourceAlpha" type="matrix" values="0 0 0 0 0 0 0 0 0 0 0 0 0 0 0 0 0 0 127 0" result="hardAlpha"/>
<feOffset dy="30.7692"/>
<feGaussianBlur stdDeviation="7.6923"/>
<feComposite in2="hardAlpha" operator="arithmetic" k2="-1" k3="1"/>
<feColorMatrix type="matrix" values="0 0 0 0 1 0 0 0 0 1 0 0 0 0 1 0 0 0 0.25 0"/>
<feBlend mode="normal" in2="shape" result="effect2_innerShadow_112_25308"/>
</filter>
<linearGradient id="paint0_linear_112_25308" x1="93.021" y1="92.5386" x2="142.332" y2="134.262" gradientUnits="userSpaceOnUse">
<stop stop-color="#FD6E6A"/>
<stop offset="1" stop-color="#FFC600"/>
</linearGradient>
<linearGradient id="paint1_linear_112_25308" x1="80.2432" y1="81" x2="152.452" y2="145.055" gradientUnits="userSpaceOnUse">
<stop stop-color="#FD6E6A"/>
<stop offset="1" stop-color="#FFC600"/>
</linearGradient>
<linearGradient id="paint2_linear_112_25308" x1="62.1777" y1="189.788" x2="161.874" y2="105.777" gradientUnits="userSpaceOnUse">
<stop stop-color="white" stop-opacity="0.2"/>
<stop offset="1" stop-color="white" stop-opacity="0.5"/>
</linearGradient>
<linearGradient id="paint3_linear_112_25308" x1="143.467" y1="189.788" x2="63.2284" y2="105.355" gradientUnits="userSpaceOnUse">
<stop stop-color="white" stop-opacity="0"/>
<stop offset="1" stop-color="white"/>
</linearGradient>
<linearGradient id="paint4_linear_112_25308" x1="110.884" y1="146.371" x2="116.526" y2="113.407" gradientUnits="userSpaceOnUse">
<stop stop-color="white" stop-opacity="0.2"/>
<stop offset="1" stop-color="white" stop-opacity="0.5"/>
</linearGradient>
</defs>
</svg>
